<svg id="visual" viewBox="0 0 960 540" width="960" height="540" xmlns="http://www.w3.org/2000/svg" xmlns:xlink="http://www.w3.org/1999/xlink" version="1.1"><rect x="0" y="0" width="960" height="540" fill="#002233"></rect><path d="M0 445L26.7 447C53.3 449 106.7 453 160 447.3C213.3 441.7 266.7 426.3 320 418.7C373.3 411 426.7 411 480 412.8C533.3 414.7 586.7 418.3 640 425.8C693.3 433.3 746.7 444.7 800 434C853.3 423.3 906.7 390.7 933.3 374.3L960 358L960 541L933.3 541C906.7 541 853.3 541 800 541C746.7 541 693.3 541 640 541C586.7 541 533.3 541 480 541C426.7 541 373.3 541 320 541C266.7 541 213.3 541 160 541C106.7 541 53.3 541 26.7 541L0 541Z" fill="#0066FF" stroke-linecap="round" stroke-linejoin="miter"></path></svg>